# AST/ASF file generated using VICON BodyLanguage
# -----------------------------------------------
:version 1.10
:name VICON
:units
  mass 1.0
  length 0.45
  angle deg
:documentation
   .ast/.asf automatically generated from VICON data using
   VICON BodyBuilder and BodyLanguage model FoxedUp or BRILLIANT.MOD
:root
   order TX TY TZ RX RY RZ
   axis XYZ
   position 0 0 0  
   orientation 0 0 0 
:bonedata
  begin
     id 1 
     name lhipjoint
     direction 0.677091 -0.635792 0.370561 
     length 2.74323 
     axis 0 0 0  XYZ
  end
  begin
     id 2 
     name lfemur
     direction 0.34202 -0.939693 0  
     length 7.44995  
     axis 0 0 20  XYZ
    dof rx ry rz
    limits (-160.0 20.0)
           (-70.0 70.0)
           (-60.0 70.0)
  end
  begin
     id 3 
     name ltibia
     direction 0.34202 -0.939693 0   
     length 7.34467   
     axis 0 0 20   XYZ
    dof rx
    limits (-10.0 170.0)
  end
  begin
     id 4 
     name lfoot
     direction 0.101953 -0.280114 0.954537   
     length 1.72105   
     axis -90 7.62852e-016 20   XYZ
    dof rx rz
    limits (-45.0 90.0)
           (-70.0 20.0)
  end
  begin
     id 5 
     name ltoes
     direction 1.53537e-011 -4.21915e-011 1   
     length 0.865872   
     axis -90 7.62852e-016 20   XYZ
    dof rx
    limits (-90.0 20.0)
  end
  begin
     id 6 
     name rhipjoint
     direction -0.695735 -0.620586 0.361699   
     length 2.81045  
     axis 0 0 0  XYZ 
  end
  begin
     id 7 
     name rfemur
     direction -0.34202 -0.939693 0   
     length 7.29387   
     axis 0 0 -20   XYZ
    dof rx ry rz
    limits (-160.0 20.0)
           (-70.0 70.0)
           (-70.0 60.0)
  end
  begin
     id 8 
     name rtibia
     direction -0.34202 -0.939693 0   
     length 7.44935   
     axis 0 0 -20   XYZ
    dof rx
    limits (-10.0 170.0)
 end
 begin
     id 9 
     name rfoot
     direction -0.104163 -0.286184 0.952496   
     length 1.77731  
     axis -90 -7.62852e-016 -20   XYZ
    dof rx rz
    limits (-45.0 90.0)
           (-20.0 70.0)
  end
  begin
     id 10 
     name rtoes
     direction -1.5355e-011 -4.21888e-011 1   
     length 0.892424   
     axis -90 -7.62852e-016 -20   XYZ
    dof rx
    limits (-90.0 20.0)
  end
  begin
     id 11 
     name lowerback
     direction 0.0100202 0.997226 -0.0737589   
     length 2.16892   
     axis 0 0 0   XYZ
    dof rx ry rz
    limits (-20.0 45.0)
           (-30.0 30.0)
           (-30.0 30.0)
  end
  begin
     id 12 
     name upperback
     direction 0.00432398 0.999988 -0.00215019   
     length 2.17326   
     axis 0 0 0   XYZ
    dof rx ry rz
    limits (-20.0 45.0)
           (-30.0 30.0)
           (-30.0 30.0)
  end
  begin
     id 13 
     name thorax
     direction -0.00195047 0.999485 0.0320434   
     length 2.18139   
     axis 0 0 0   XYZ
    dof rx ry rz
    limits (-20.0 45.0)
           (-30.0 30.0)
           (-30.0 30.0)
  end
  begin
     id 14 
     name lowerneck
     direction 0.00782762 0.986241 0.165128   
     length 1.88415   
     axis 0 0 0   XYZ
    dof rx ry rz
    limits (-20.0 45.0)
           (-30.0 30.0)
           (-30.0 30.0)
  end
  begin
     id 15 
     name upperneck
     direction 0.00988667 0.981098 -0.193258   
     length 1.9242   
     axis 0 0 0   XYZ
    dof rx ry rz
    limits (-20.0 45.0)
           (-30.0 30.0)
           (-30.0 30.0)
  end
  begin
     id 16
     name head
     direction 0.00252199 0.996513 -0.0833958  
     length 1.93887  
     axis 0 0 0   XYZ
    dof rx ry rz
    limits (-20.0 45.0)
           (-30.0 30.0)
           (-30.0 30.0)
  end
  begin
     id 17 
     name lclavicle
     direction 0.929492 0.368193 -0.0218667  
     length 3.5955  
     axis 0 0 0   XYZ
    dof ry rz
    limits (-20.0 10.0)
           (0.0 20.0)
  end
  begin
     id 18 
     name lhumerus
     direction 1 -4.48972e-011 1.41911e-027   
     length 5.2795   
     axis 180 -30 -90   XYZ
    dof rx ry rz
    limits (-60.0 90.0)
           (-90.0 90.0)
           (-90.0 90.0)
  end
  begin
     id 19
     name lradius
     direction 1 -4.48963e-011 7.05772e-027   
     length 3.53504   
     axis 180 -30 -90   XYZ
    dof rx
    limits (-10.0 170.0)
  end
  begin
     id 20
     name lwrist
     direction 1 -4.48957e-011 9.54866e-027   
     length 1.76752   
     axis -7.69462e-015 90 90   XYZ
    dof ry
    limits (-180.0 0.0)
 end
  begin
     id 21 
     name lhand
     direction 1 -4.48979e-011 1.90973e-026   
     length 0.667948   
     axis -1.21857e-014 90 90   XYZ
    dof rx rz
    limits (-90.0 90.0)
           (-45.0 45.0)
  end
  begin
     id 22 
     name lfingers
     direction 1 -4.48987e-011 3.81946e-026   
     length 0.538517   
     axis -2.43714e-014 90 90   XYZ
    dof rx
    limits (0.0 90.0)
  end
  begin
     id 23
     name lthumb
     direction 0.707107 -6.34962e-011 0.707107   
     length 0.773206   
     axis -90 45 2.85299e-015   XYZ
    dof rx rz
    limits (-45.0 45.0)
           (-45.0 45.0)
  end
  begin
     id 24 
     name rclavicle
     direction -0.898763 0.414256 -0.143584   
     length 3.5176  
     axis 0 0 0   XYZ 
    dof ry rz
    limits (-10.0 20.0)
           (-20.0 0.0)
  end
  begin
     id 25 
     name rhumerus
     direction -1 -4.48971e-011 1.129e-027  
     length 5.25035   
     axis 180 30 90   XYZ
    dof rx ry rz
    limits (-90.0 60.0)
           (-90.0 90.0)
           (-90.0 90.0)
  end
  begin
     id 26 
     name rradius
     direction -1 -4.48955e-011 6.34664e-027   
     length 3.58884   
     axis 180 30 90   XYZ
    dof rx
    limits (-10.0 170.0)
  end
  begin
     id 27 
     name rwrist
     direction -1 -4.48966e-011 9.54866e-027   
     length 1.79442   
     axis -7.69462e-015 -90 -90   XYZ
    dof ry
    limits (-180.0 0.0)
  end
  begin
     id 28
     name rhand
     direction -1 -4.48973e-011 1.90973e-026   
     length 0.779235   
     axis -1.21857e-014 -90 -90   XYZ
    dof rx rz
    limits (-90.0 90.0)
           (-45.0 45.0)
  end
  begin
     id 29
     name rfingers
     direction -1 -4.48984e-011 3.81946e-026   
     length 0.62824   
     axis -2.43714e-014 -90 -90   XYZ
    dof rx
    limits (0.0 90.0)
  end
  begin
     id 30
     name rthumb
     direction -0.707107 -6.34968e-011 0.707107   
     length 0.90203   
     axis -90 -45 -2.85299e-015   XYZ
    dof rx rz
    limits (-45.0 45.0)
           (-45.0 45.0)
  end
:hierarchy
  begin
    root lhipjoint rhipjoint lowerback
    lhipjoint lfemur
    lfemur ltibia
    ltibia lfoot
    lfoot ltoes
    rhipjoint rfemur
    rfemur rtibia
    rtibia rfoot
    rfoot rtoes
    lowerback upperback
    upperback thorax
    thorax lowerneck lclavicle rclavicle
    lowerneck upperneck
    upperneck head
    lclavicle lhumerus
    lhumerus lradius
    lradius lwrist
    lwrist lhand lthumb
    lhand lfingers
    rclavicle rhumerus
    rhumerus rradius
    rradius rwrist
    rwrist rhand rthumb
    rhand rfingers
  end

#!OML:ASF I:\Random Stuff\random\construction\7_22_03\Session 2\subj1.ASF
:FULLY-SPECIFIED
:DEGREES
181
root -8.27312 17.8576 5.35061 10.7095 54.3313 8.86363
lowerback 4.9933 -2.8137 2.09514
upperback -0.614521 -3.57606 1.13167
thorax -3.48674 -1.80443 0.27875
lowerneck -22.7693 1.38541 -1.29776
upperneck 38.6544 4.53933 -2.58322
head 18.4631 1.42078 0.0807084
rclavicle 9.25343e-014 -7.95139e-015
rhumerus -14.5242 -21.7087 -54.8097
rradius 119.116
rwrist -60.3304
rhand -31.3235 22.5224
rfingers 7.12502
rthumb -4.59556 -7.40774
lclavicle 9.25343e-014 -7.95139e-015
lhumerus -14.4351 -24.5119 88.6425
lradius 95.6252
lwrist 37.1314
lhand -21.1148 58.274
lfingers 7.12502
lthumb -174.736 -91.8113
rfemur -7.84861 13.0542 19.9498
rtibia 15.9107
rfoot -10.6867 -17.6003
rtoes -2.78598
lfemur -6.95454 3.15938 -16.5995
ltibia 28.2382
lfoot -7.92154 2.10999
ltoes -18.8942
182
root -8.26171 17.8462 5.35289 10.396 54.3672 8.65999
lowerback 5.09168 -2.76385 2.10154
upperback -0.770667 -3.4989 1.24233
thorax -3.69619 -1.76629 0.393305
lowerneck -22.7786 1.61086 -1.05732
upperneck 38.5758 4.92848 -2.91815
head 18.4503 1.56366 -0.0326189
rclavicle -1.61016e-014 -3.49861e-014
rhumerus -13.7044 -22.5271 -55.3137
rradius 119.342
rwrist -61.6448
rhand -32.1017 22.7615
rfingers 7.12502
rthumb -5.3469 -7.15107
lclavicle -1.61016e-014 -3.49861e-014
lhumerus -12.1967 -23.4191 87.5612
lradius 94.6816
lwrist 36.1753
lhand -19.4905 58.7188
lfingers 7.12502
lthumb -173.168 -91.4115
rfemur -7.65047 13.3211 20.1219
rtibia 16.0097
rfoot -10.6909 -17.9294
rtoes -3.82609
lfemur -7.63893 3.62978 -16.9863
ltibia 28.6339
lfoot -8.67756 2.98507
ltoes -20.5428
183
root -8.24952 17.8383 5.3545 10.0683 54.4792 8.3799
lowerback 5.05448 -2.74873 2.22223
upperback -0.881719 -3.46649 1.32356
thorax -3.79225 -1.75252 0.408982
lowerneck -22.9462 1.93979 -0.546057
upperneck 38.6234 5.41997 -3.35819
head 18.5744 1.76704 -0.218332
rclavicle -2.26615e-014 -6.36111e-015
rhumerus -12.7623 -23.1818 -56.1791
rradius 119.412
rwrist -62.6161
rhand -32.6492 23.0007
rfingers 7.12502
rthumb -5.87557 -6.89786
lclavicle -2.26615e-014 -6.36111e-015
lhumerus -9.99136 -22.6037 86.5092
lradius 93.3614
lwrist 36.6567
lhand -19.5455 57.9824
lfingers 7.12502
lthumb -173.221 -92.1461
rfemur -7.47749 13.4961 20.3427
rtibia 16.0648
rfoot -10.6566 -18.265
rtoes -4.86994
lfemur -8.43381 4.03648 -17.2981
ltibia 29.0202
lfoot -9.58108 3.28377
ltoes -19.3312
184
root -8.23643 17.8303 5.35511 9.64012 54.5804 8.00566
lowerback 4.89825 -2.76444 2.44075
upperback -0.912993 -3.47584 1.37314
thorax -3.74706 -1.76114 0.33215
lowerneck -22.4996 2.14619 -0.601335
upperneck 38.2916 5.66707 -3.22608
head 18.259 1.8921 -0.0967844
rclavicle 3.54831e-014 1.59028e-015
rhumerus -11.6266 -23.7071 -57.4066
rradius 119.25
rwrist -63.1443
rhand -33.0866 22.9628
rfingers 7.12502
rthumb -6.2978 -6.92359
lclavicle 3.54831e-014 1.59028e-015
lhumerus -7.78238 -21.6111 85.4078
lradius 91.697
lwrist 36.8398
lhand -19.1967 57.72
lfingers 7.12502
lthumb -172.885 -92.4196
rfemur -7.26868 13.7449 20.6151
rtibia 16.0857
rfoot -10.7484 -18.6372
rtoes -4.69511
lfemur -9.22532 4.39532 -17.5528
ltibia 29.3657
lfoot -10.62 3.63767
ltoes -17.8764
185
root -8.22167 17.8197 5.35675 9.18604 54.6256 7.63089
lowerback 4.68864 -2.75821 2.6319
upperback -0.898625 -3.46126 1.42895
thorax -3.6221 -1.75646 0.27046
lowerneck -22.3626 2.4174 -0.280884
upperneck 38.1085 6.01695 -3.43201
head 18.1509 2.0552 -0.173777
rclavicle -2.88238e-015 -6.36111e-015
rhumerus -10.393 -24.0847 -58.7974
rradius 118.886
rwrist -63.3214
rhand -33.5725 22.5149
rfingers 7.12502
rthumb -6.76685 -7.35701
lclavicle -2.88238e-015 -6.36111e-015
lhumerus -5.60695 -20.5644 84.4575
lradius 89.6882
lwrist 36.7845
lhand -18.7205 57.8589
lfingers 7.12502
lthumb -172.425 -92.2967
rfemur -7.02882 14.0332 20.8799
rtibia 16.0938
rfoot -10.8625 -18.9586
rtoes -4.28102
lfemur -9.9597 4.85129 -17.8207
ltibia 29.6406
lfoot -11.1118 3.86445
ltoes -17.1005
186
root -8.20548 17.8115 5.35737 8.76922 54.5997 7.28095
lowerback 4.52217 -2.72331 2.77605
upperback -0.916309 -3.4093 1.49618
thorax -3.55033 -1.7324 0.247148
lowerneck -22.1565 2.60286 0.243834
upperneck 37.8453 6.242 -3.89152
head 18.0034 2.16407 -0.431787
rclavicle -4.78077e-014 2.54444e-014
rhumerus -9.19087 -24.1318 -60.1127
rradius 118.358
rwrist -63.7818
rhand -34.0878 22.1399
rfingers 7.12502
rthumb -7.26436 -7.71542
lclavicle -4.78077e-014 2.54444e-014
lhumerus -3.52493 -19.4596 83.6792
lradius 87.3997
lwrist 36.6381
lhand -18.1638 58.215
lfingers 7.12502
lthumb -171.888 -91.9607
rfemur -6.86706 14.107 21.1021
rtibia 16.1822
rfoot -11.042 -19.0305
rtoes -4.34521
lfemur -10.6678 5.29411 -18.1028
ltibia 29.8157
lfoot -11.1233 3.94254
ltoes -16.3773
187
root -8.18867 17.8048 5.35531 8.4312 54.6087 7.02631
lowerback 4.44163 -2.7034 2.83903
upperback -0.962018 -3.37768 1.57848
thorax -3.55052 -1.71715 0.29162
lowerneck -22.2584 2.8241 0.422829
upperneck 38.035 6.55589 -3.93346
head 18.1596 2.3063 -0.412429
rclavicle -6.55989e-014 -2.54444e-014
rhumerus -8.0403 -23.8266 -61.1995
rradius 117.703
rwrist -65.0241
rhand -34.4338 22.3309
rfingers 7.12502
rthumb -7.5983 -7.51257
lclavicle -6.55989e-014 -2.54444e-014
lhumerus -1.5423 -18.3576 82.9769
lradius 85.0403
lwrist 36.9059
lhand -17.6823 58.5845
lfingers 7.12502
lthumb -171.423 -91.6097
rfemur -6.78122 13.9716 21.2589
rtibia 16.4237
rfoot -11.3077 -18.9816
rtoes -4.71483
lfemur -11.3202 5.58374 -18.4099
ltibia 29.8411
lfoot -11.1796 4.12991
ltoes -16.6917
188
root -8.16831 17.7925 5.3536 8.20537 54.8573 7.00971
lowerback 4.3825 -2.74555 2.82433
upperback -0.961785 -3.43572 1.61271
thorax -3.51507 -1.74504 0.336321
lowerneck -22.7855 3.1154 0.406282
upperneck 38.5739 6.9101 -3.51466
head 18.5937 2.48652 -0.125357
rclavicle 1.94809e-014 1.43125e-014
rhumerus -7.0568 -23.3372 -62.1823
rradius 117.101
rwrist -66.7104
rhand -34.5768 22.7526
rfingers 7.12502
rthumb -7.73636 -7.08583
lclavicle 1.94809e-014 1.43125e-014
lhumerus 0.337825 -17.4113 82.3052
lradius 82.8495
lwrist 37.8624
lhand -17.5194 59.0567
lfingers 7.12502
lthumb -171.266 -91.144
rfemur -6.52949 14.0233 21.3462
rtibia 16.6685
rfoot -11.5728 -19.3615
rtoes -4.75681
lfemur -11.7876 5.68921 -18.7907
ltibia 29.6881
lfoot -11.3927 4.48576
ltoes -18.6783
189
root -8.14045 17.7751 5.35268 8.07968 55.1672 7.33297
lowerback 4.41927 -2.81865 2.6831
upperback -0.899329 -3.54429 1.54622
thorax -3.46839 -1.79647 0.354474
lowerneck -22.6839 3.24268 0.640509
upperneck 38.5889 7.04123 -3.58667
head 18.5961 2.56696 -0.172033
rclavicle -9.31803e-014 0
rhumerus -6.33013 -22.7984 -63.4396
rradius 116.591
rwrist -67.9576
rhand -34.7413 22.7398
rfingers 7.12502
rthumb -7.89506 -7.09278
lclavicle -9.31803e-014 0
lhumerus 2.04544 -16.451 81.7328
lradius 80.8264
lwrist 38.9388
lhand -17.7499 59.367
lfingers 7.12502
lthumb -171.488 -90.8246
rfemur -5.98182 14.2445 21.2916
rtibia 16.8448
rfoot -11.8617 -19.9703
rtoes -4.38573
lfemur -11.9944 5.75033 -19.3358
ltibia 29.52
lfoot -11.5909 4.91766
ltoes -20.2881
190
root -8.1305 17.7792 5.36654 7.87943 53.7264 7.21419
lowerback 4.39552 -2.28031 2.1777
upperback -0.907072 -2.85797 1.53813
thorax -3.4265 -1.44585 0.573785
lowerneck -22.6288 3.39178 0.700292
upperneck 38.6055 7.14979 -3.35733
head 18.5801 2.65513 -0.050798
rclavicle 1.69961e-014 -1.90833e-014
rhumerus -5.87152 -22.3007 -64.9586
rradius 116.172
rwrist -68.6037
rhand -34.9115 22.1434
rfingers 7.12502
rthumb -8.05938 -7.68293
lclavicle 1.69961e-014 -1.90833e-014
lhumerus 3.57797 -15.5834 81.2589
lradius 79.1275
lwrist 40.0915
lhand -18.1657 59.5582
lfingers 7.12502
lthumb -171.89 -90.6175
rfemur -6.03287 14.1542 21.1196
rtibia 16.8491
rfoot -11.7845 -18.5402
rtoes -5.41541
lfemur -12.3077 7.15536 -19.7127
ltibia 29.351
lfoot -11.9587 5.69256
ltoes -20.9211
191
root -8.09175 17.7715 5.34178 7.40448 55.0723 7.26947
lowerback 4.69508 -2.70953 2.75059
upperback -0.846417 -3.38936 1.43637
thorax -3.57706 -1.72219 0.204892
lowerneck -22.9629 3.71537 1.18324
upperneck 38.7706 7.46225 -3.36225
head 18.8026 2.83919 -0.0579247
rclavicle 1.11319e-014 0
rhumerus -5.25268 -21.4244 -66.3804
rradius 115.979
rwrist -69.496
rhand -35.6134 22.585
rfingers 7.12502
rthumb -8.73673 -7.21423
lclavicle 1.11319e-014 0
lhumerus 4.9125 -14.8314 80.877
lradius 77.8728
lwrist 41.3023
lhand -18.2493 59.789
lfingers 7.12502
lthumb -171.97 -90.3836
rfemur -5.05909 13.8625 21.3612
rtibia 16.6739
rfoot -11.8202 -19.5245
rtoes -5.32239
lfemur -12.6154 5.92385 -19.8916
ltibia 29.2479
lfoot -12.0731 6.27972
ltoes -19.173
